<svg width="116" height="114" viewBox="0 0 116 114" fill="none" xmlns="http://www.w3.org/2000/svg">
<path d="M50.5061 102.944L48.4736 114L44.358 113.253C43.5451 113.104 42.9353 112.855 42.4272 112.506C41.9699 112.157 41.6143 111.759 41.4618 111.261C41.2586 110.763 41.2586 110.265 41.3602 109.717C41.4618 109.269 41.6143 108.87 41.8175 108.621C42.0207 108.372 42.3256 108.123 42.6305 107.974C42.9353 107.825 43.291 107.775 43.6467 107.725V107.625C43.291 107.526 42.9353 107.376 42.6305 107.078C42.3256 106.779 42.0716 106.43 41.9191 105.982C41.7667 105.534 41.7159 105.036 41.8175 104.488C41.9191 103.94 42.1732 103.442 42.478 103.044C42.8337 102.645 43.291 102.346 43.9007 102.197C44.5104 102.048 45.2726 102.048 46.1364 102.197L50.5061 102.944ZM47.6607 108.92L45.3742 108.522C44.9677 108.472 44.6121 108.472 44.3072 108.572C44.0023 108.671 43.6975 108.821 43.4434 109.07C43.1894 109.319 43.0878 109.568 42.9861 109.966C42.8845 110.414 42.9861 110.813 43.291 111.211C43.5959 111.61 44.0532 111.809 44.7137 111.958L47.051 112.357L47.6607 108.92ZM48.5245 104.04L46.0856 103.591C45.2726 103.442 44.6629 103.492 44.2564 103.741C43.8499 103.99 43.5959 104.338 43.4942 104.787C43.4434 105.135 43.4434 105.484 43.5959 105.783C43.6975 106.082 43.9515 106.38 44.2564 106.629C44.5613 106.878 44.9169 107.028 45.3742 107.078L47.9147 107.526L48.5245 104.04Z" fill="#F58A07"/>
<path d="M36.7359 99.1591C37.4981 99.4579 38.1078 99.9061 38.5143 100.504C38.9208 101.052 39.1748 101.699 39.2256 102.446C39.2764 103.193 39.124 103.94 38.7683 104.737C38.4127 105.534 37.9554 106.181 37.3965 106.629C36.8375 107.127 36.177 107.426 35.5165 107.526C34.8051 107.625 34.0938 107.526 33.3824 107.227C32.9251 107.028 32.5186 106.779 32.163 106.48C31.8073 106.181 31.5533 105.783 31.35 105.335C31.1468 104.886 31.0451 104.388 31.096 103.791C31.096 103.193 31.2992 102.595 31.6041 101.898L31.8581 101.35L38.1586 103.94L37.6505 105.085L32.8743 103.093C32.7219 103.492 32.6203 103.89 32.6711 104.239C32.7219 104.637 32.8235 104.936 33.0268 105.235C33.23 105.534 33.5349 105.783 33.9413 105.932C34.3986 106.131 34.8051 106.181 35.2116 106.082C35.6181 106.032 35.9738 105.833 36.2786 105.584C36.5835 105.335 36.8375 104.986 36.99 104.637L37.3965 103.741C37.5997 103.243 37.7013 102.745 37.7013 102.297C37.6505 101.848 37.5489 101.45 37.2948 101.151C37.0408 100.852 36.6851 100.554 36.2278 100.354C35.923 100.255 35.6689 100.155 35.364 100.155C35.11 100.155 34.8051 100.155 34.6019 100.255C34.3986 100.354 34.1446 100.504 33.9413 100.703L32.5695 99.8563C32.8743 99.5077 33.23 99.2089 33.6873 99.0097C34.1446 98.8105 34.6019 98.7109 35.11 98.7607C35.6181 98.8105 36.177 98.9101 36.7359 99.1591Z" fill="#F58A07"/>
<path d="M22.2549 98.3621L23.6776 99.0095C23.6268 99.2087 23.576 99.4079 23.6268 99.6071C23.6268 99.8063 23.7284 100.055 23.8301 100.255C23.9825 100.454 24.1857 100.703 24.4398 100.852C24.8463 101.101 25.2019 101.251 25.6084 101.251C25.9641 101.251 26.269 101.101 26.4722 100.852C26.6246 100.603 26.6754 100.354 26.6246 100.105C26.5738 99.8561 26.3706 99.5573 26.0149 99.2087L25.0495 98.2127C24.4906 97.6151 24.1857 97.0673 24.0841 96.5692C23.9825 96.0712 24.0841 95.5234 24.4398 95.0254C24.7446 94.627 25.1003 94.3282 25.6084 94.1788C26.0657 94.0294 26.5738 93.9796 27.1835 94.129C27.7425 94.2286 28.3014 94.4776 28.9111 94.876C29.7241 95.4238 30.2322 96.0214 30.4862 96.6688C30.7403 97.3163 30.7403 98.0135 30.3846 98.7107L28.9111 98.0135C29.0635 97.6151 29.0635 97.2665 28.9619 96.9179C28.8095 96.5692 28.5554 96.2704 28.1489 95.9716C27.6916 95.6728 27.2852 95.5234 26.8787 95.5234C26.4722 95.5234 26.1673 95.6728 26.0149 95.9218C25.8625 96.121 25.8117 96.37 25.8625 96.619C25.9133 96.868 26.1165 97.1669 26.3706 97.4657L27.3868 98.5115C27.9457 99.1091 28.2506 99.6569 28.3522 100.205C28.4538 100.753 28.3014 101.251 27.9457 101.749C27.6408 102.147 27.2852 102.446 26.8279 102.595C26.3706 102.745 25.8625 102.745 25.3544 102.645C24.8463 102.545 24.2873 102.296 23.7792 101.948C23.0171 101.45 22.509 100.852 22.3057 100.255C22.0009 99.6569 22.0009 99.0095 22.2549 98.3621Z" fill="#F58A07"/>
<path d="M16.1574 98.5111L14.938 97.3657L20.5779 91.6385C20.7812 91.3895 20.9336 91.1903 20.9844 91.0409C21.0352 90.8417 21.0352 90.6923 20.9336 90.5429C20.8828 90.3934 20.7812 90.244 20.6287 90.1444C20.5271 90.0448 20.4255 89.995 20.3747 89.9452C20.3239 89.8954 20.2223 89.8456 20.1714 89.7958L20.9336 88.6006C21.0352 88.6504 21.1368 88.7002 21.2893 88.7998C21.4417 88.8994 21.6449 89.0488 21.7974 89.1982C22.1022 89.497 22.3563 89.8456 22.5087 90.1942C22.6612 90.5429 22.712 90.9413 22.6612 91.3397C22.6103 91.7381 22.3563 92.1365 22.0006 92.4851L16.1574 98.5111ZM15.0904 94.7262L16.005 93.78L19.3585 96.9673L18.4439 97.9135L15.0904 94.7262Z" fill="#F58A07"/>
<path d="M15.3449 80.8316C15.5989 81.2798 15.7514 81.7778 15.8022 82.226C15.853 82.724 15.7514 83.1224 15.5481 83.5208C15.3449 83.9193 14.9892 84.2679 14.4811 84.5667C14.0746 84.8157 13.6681 84.9153 13.3125 84.9153C12.9568 84.9153 12.6011 84.8157 12.2963 84.6165C11.9914 84.4173 11.6865 84.2181 11.4325 83.9193C11.1784 83.6204 10.8736 83.3216 10.6703 83.0228C10.3655 82.6244 10.1114 82.2758 9.90817 82.0268C9.70493 81.7778 9.5525 81.6284 9.40007 81.5288C9.24764 81.4292 9.09521 81.479 8.89196 81.5786H8.84115C8.43467 81.8276 8.18062 82.1264 8.079 82.475C7.97738 82.8236 8.079 83.2718 8.33305 83.7201C8.63791 84.2181 8.94277 84.5169 9.29845 84.6663C9.65412 84.8157 10.0098 84.8655 10.3655 84.8157L10.8228 86.3097C10.2638 86.4093 9.75574 86.3595 9.29845 86.2101C8.84115 86.0607 8.43467 85.8117 8.079 85.5129C7.72333 85.1643 7.41846 84.8157 7.16441 84.3675C7.01198 84.0687 6.85955 83.7699 6.70712 83.3714C6.6055 83.0228 6.55469 82.6244 6.55469 82.226C6.55469 81.8276 6.70712 81.4292 6.91036 81.0806C7.1136 80.732 7.52008 80.3833 8.079 80.0347L13.0076 77.2458L13.8206 78.6403L12.8044 79.2379L12.8552 79.2877C13.1092 79.2877 13.3633 79.2877 13.6681 79.3873C13.973 79.4869 14.2271 79.6363 14.5319 79.8355C14.8368 80.1343 15.0908 80.4331 15.3449 80.8316ZM13.973 81.1802C13.7189 80.7818 13.4649 80.4829 13.16 80.2837C12.8552 80.0845 12.4995 79.9849 12.1438 79.9849C11.7882 79.9849 11.4833 80.0845 11.1784 80.2339L10.213 80.7818C10.3147 80.7818 10.4163 80.8814 10.5179 80.981C10.6195 81.0806 10.7719 81.23 10.9244 81.4292C11.0768 81.5786 11.1784 81.7778 11.3309 81.9272C11.4325 82.0766 11.5849 82.226 11.6357 82.3256C11.839 82.5746 12.0422 82.8236 12.2454 82.973C12.4487 83.1722 12.7027 83.2718 12.906 83.3216C13.16 83.3714 13.4141 83.3216 13.6681 83.1722C14.0238 82.973 14.2271 82.6742 14.2271 82.3256C14.3287 81.977 14.2271 81.5786 13.973 81.1802Z" fill="#F58A07"/>
<path d="M14.0746 70.5228C14.2779 71.1702 14.3795 71.718 14.3287 72.2658C14.3287 72.7638 14.2271 73.2121 14.0238 73.6105C13.8206 74.0089 13.6173 74.3077 13.3125 74.5567L12.2963 73.4113C12.3979 73.2618 12.5503 73.1124 12.6519 72.8634C12.7536 72.6642 12.8552 72.3654 12.906 72.0666C12.9568 71.7678 12.906 71.3694 12.7536 70.971C12.5503 70.3734 12.2455 69.9251 11.839 69.6263C11.4325 69.3275 10.8736 69.2777 10.2639 69.4769L8.63792 69.9749L8.68873 70.0745C8.89197 70.1244 9.14602 70.1742 9.40007 70.2738C9.65413 70.3734 9.90818 70.5726 10.213 70.8216C10.5179 71.0706 10.6703 71.469 10.8228 71.967C11.026 72.6144 11.0768 73.212 10.9244 73.8097C10.772 74.4073 10.4671 74.9551 9.95899 75.4531C9.45089 75.9511 8.79035 76.2997 7.92657 76.5986C7.0628 76.8476 6.24983 76.9472 5.53849 76.8476C4.82714 76.748 4.21742 76.499 3.70932 76.1005C3.20121 75.7021 2.84554 75.1543 2.6423 74.5069C2.48987 74.0089 2.43906 73.5607 2.48987 73.212C2.54068 72.8634 2.69311 72.5646 2.84554 72.3156C2.99797 72.0666 3.1504 71.8674 3.30283 71.718L3.25202 71.6184L1.93095 72.0168L1.42285 70.473L9.80656 67.8833C10.5179 67.6841 11.1276 67.6343 11.6865 67.8335C12.2455 68.0327 12.7027 68.3315 13.1092 68.8295C13.5157 69.3275 13.8714 69.8255 14.0746 70.5228ZM9.40007 71.967C9.24764 71.5188 9.0444 71.1702 8.68873 70.9212C8.33306 70.6722 7.97739 70.5228 7.52009 70.5228C7.0628 70.473 6.5547 70.5726 5.99578 70.722C5.43687 70.8714 4.97958 71.1204 4.6239 71.4192C4.26823 71.718 4.01418 72.0666 3.86175 72.4152C3.70932 72.8136 3.70932 73.212 3.86175 73.6603C4.01418 74.1085 4.26823 74.5069 4.6239 74.7061C4.97958 74.9551 5.38606 75.0547 5.84335 75.1045C6.30064 75.1543 6.80875 75.0547 7.31685 74.9053C7.87576 74.7559 8.28225 74.5069 8.63792 74.2081C8.99359 73.9093 9.24764 73.5607 9.34926 73.212C9.55251 72.8634 9.55251 72.465 9.40007 71.967Z" fill="#F58A07"/>
<path d="M8.99326 61.6084C9.09488 62.455 8.94245 63.1523 8.63758 63.7997C8.33272 64.4471 7.87543 64.9451 7.21489 65.2937C6.60517 65.6922 5.84301 65.8914 4.92843 65.991C4.06465 66.0906 3.25169 65.991 2.59115 65.6921C1.87981 65.4431 1.3209 65.0447 0.914412 64.4969C0.50793 63.9491 0.253878 63.3017 0.152257 62.5049C0.101447 62.0068 0.152257 61.5586 0.253878 61.1104C0.355499 60.6622 0.60955 60.214 0.914412 59.8654C1.21927 59.467 1.62576 59.1681 2.18467 58.9191C2.69277 58.6701 3.35331 58.5207 4.11546 58.4211L4.72519 58.3713L5.33491 65.0447L4.06465 65.1443L3.60736 60.0646C3.15007 60.1144 2.79439 60.214 2.48953 60.4132C2.18467 60.6124 1.93062 60.9112 1.77819 61.21C1.62576 61.5088 1.52414 61.9072 1.57495 62.3554C1.62576 62.8037 1.77819 63.2021 2.03224 63.5009C2.28629 63.7997 2.59115 64.0487 2.99764 64.1981C3.40412 64.3475 3.8106 64.3973 4.21708 64.3475L5.18248 64.2479C5.74139 64.1981 6.2495 64.0487 6.60517 63.7997C6.96084 63.5507 7.2657 63.2519 7.46895 62.9033C7.62138 62.5049 7.723 62.1064 7.67219 61.6084C7.62138 61.3096 7.57057 61.0108 7.46895 60.7618C7.36732 60.5128 7.21489 60.3136 7.01165 60.1144C6.80841 59.965 6.55436 59.8156 6.30031 59.7658L6.45274 58.1721C6.91003 58.2717 7.36732 58.4211 7.723 58.7199C8.07867 59.0187 8.38353 59.3674 8.63758 59.8654C8.89164 60.3634 8.94245 61.0108 8.99326 61.6084Z" fill="#F58A07"/>
<path d="M3.65834 53.4901L8.73938 54.0878L8.53614 55.7312L0 54.7352L0.203241 53.1913L1.57512 53.3407V53.2411C1.16864 52.9921 0.812965 52.6435 0.609724 52.1953C0.406483 51.7471 0.304862 51.1993 0.406483 50.6017C0.457293 50.0538 0.660534 49.5558 0.965396 49.1574C1.27026 48.759 1.67674 48.4602 2.18484 48.3108C2.69295 48.1116 3.30267 48.0618 4.01402 48.1614L9.45072 48.8088L9.24748 50.4523L3.96321 49.755C3.35348 49.7052 2.84538 49.8048 2.4389 50.0538C2.03241 50.3526 1.82917 50.7511 1.77836 51.2989C1.72755 51.6973 1.77836 51.9961 1.93079 52.3447C2.08322 52.6435 2.28647 52.8925 2.59133 53.1415C2.84538 53.2909 3.20105 53.4403 3.65834 53.4901Z" fill="#F58A07"/>
<path d="M11.3314 42.7831C11.0773 43.5301 10.6708 44.1775 10.1119 44.5759C9.55299 45.0242 8.89246 45.2732 8.18111 45.3728C7.46977 45.4724 6.6568 45.3728 5.84384 45.074C5.03087 44.7752 4.31953 44.3767 3.81142 43.8787C3.30332 43.3807 2.94765 42.7831 2.79522 42.0859C2.64278 41.3886 2.69359 40.6914 2.94765 39.9444C3.15089 39.3468 3.45575 38.8488 3.86223 38.4503C4.26871 38.0519 4.72601 37.7531 5.23411 37.6037C5.74221 37.4543 6.30113 37.4543 6.86004 37.5539L6.35194 39.048C5.94546 38.9982 5.53897 39.0978 5.1833 39.297C4.82763 39.4962 4.52277 39.8448 4.37034 40.3428C4.2179 40.791 4.2179 41.1894 4.31953 41.5878C4.42115 41.9863 4.6752 42.3349 5.03087 42.6835C5.38654 43.0321 5.84384 43.2811 6.45356 43.4803C7.06328 43.6795 7.57139 43.7791 8.07949 43.7293C8.58759 43.6795 8.99408 43.5799 9.34975 43.3309C9.70542 43.0819 9.95947 42.7333 10.1119 42.2851C10.2135 41.9863 10.2643 41.6875 10.2135 41.4384C10.1627 41.1396 10.1119 40.8906 9.95947 40.6914C9.80704 40.4922 9.6038 40.2432 9.34975 40.0938L9.85785 38.5997C10.366 38.8488 10.7724 39.1476 11.0773 39.5958C11.3822 39.9942 11.5854 40.4922 11.6362 41.04C11.6362 41.5878 11.5854 42.1855 11.3314 42.7831Z" fill="#F58A07"/>
<path d="M16.666 38.1519C16.5136 38.3511 16.412 38.5503 16.2595 38.6997C16.1071 38.8491 16.0055 38.9487 15.9039 39.0483L14.9385 38.0025C15.1417 37.8033 15.3449 37.5543 15.4466 37.3551C15.5482 37.1559 15.599 36.9069 15.5482 36.7077C15.4974 36.4587 15.3449 36.2096 15.0909 35.861L14.6844 35.4128L5.58936 33.7196L6.50394 32.2255L13.3633 33.7196L13.4141 33.62L8.79041 28.4406L9.70499 26.9465L16.2595 34.7654C16.5644 35.114 16.7676 35.5124 16.9201 35.861C17.0725 36.2096 17.1233 36.6081 17.0725 36.9567C17.0217 37.3053 16.8693 37.7535 16.666 38.1519Z" fill="#F58A07"/>
<path d="M21.5946 25.9504L20.7816 25.0042L21.0357 19.526C21.0357 18.9284 21.0865 18.4304 21.0357 18.032C21.0357 17.6336 20.9849 17.2352 20.8833 16.9363C20.7816 16.6375 20.6292 16.3387 20.426 16.0897C20.1719 15.7909 19.8671 15.6415 19.5622 15.5419C19.2573 15.4423 18.9017 15.4423 18.5968 15.5419C18.2919 15.6415 17.9363 15.7909 17.6822 16.0399C17.3774 16.2889 17.1741 16.5877 17.0217 16.9363C16.9201 17.2352 16.8693 17.5838 16.9709 17.9324C17.0725 18.281 17.2249 18.5798 17.479 18.8786L16.2595 19.9742C15.8022 19.4762 15.4974 18.9284 15.3957 18.3308C15.2941 17.7332 15.3449 17.1356 15.599 16.5877C15.853 15.9901 16.2087 15.4921 16.7676 15.0439C17.3265 14.5957 17.8855 14.2969 18.4952 14.1475C19.1049 13.998 19.6638 13.998 20.2227 14.1973C20.7816 14.3467 21.2389 14.6455 21.6454 15.1435C21.9503 15.4423 22.1535 15.7909 22.306 16.2391C22.4584 16.6375 22.56 17.1356 22.56 17.783C22.56 18.4304 22.56 19.1774 22.5092 20.1735L22.3568 23.2612L22.4076 23.311L26.2692 19.9742L27.2346 21.0699L21.5946 25.9504Z" fill="#F58A07"/>
<path d="M33.0273 17.9324C32.2652 18.3309 31.4522 18.4803 30.69 18.3807C29.9279 18.2811 29.1657 17.9324 28.4544 17.285C27.743 16.6874 27.0825 15.8408 26.5236 14.7451C25.9139 13.6495 25.5582 12.7033 25.4566 11.757C25.3549 10.8606 25.4566 10.0638 25.7614 9.36655C26.1171 8.66932 26.6252 8.1215 27.4382 7.72309C28.2003 7.32468 28.9625 7.17527 29.7754 7.27488C30.5884 7.37448 31.2998 7.72309 32.0111 8.32071C32.7225 8.91833 33.383 9.76496 33.9419 10.8108C34.5516 11.9064 34.9073 12.9025 35.0089 13.7989C35.1613 14.6953 35.0597 15.542 34.7041 16.1894C34.3484 16.9364 33.7895 17.4842 33.0273 17.9324ZM32.316 16.6376C32.9765 16.289 33.3322 15.6914 33.383 14.7949C33.4338 13.9483 33.0781 12.9025 32.4176 11.6574C31.9603 10.8606 31.503 10.2132 30.9949 9.71516C30.4868 9.21714 30.0295 8.91833 29.5214 8.81873C29.0133 8.71913 28.556 8.76893 28.0987 9.01794C27.4382 9.36655 27.0825 9.96417 27.0317 10.8606C26.9809 11.7072 27.3365 12.7531 27.9971 13.9981C28.4544 14.8447 28.9117 15.4922 29.4198 15.9404C29.9279 16.4384 30.3852 16.6874 30.8933 16.8368C31.3506 16.9364 31.8587 16.8866 32.316 16.6376Z" fill="#F58A07"/>
<path d="M38.9208 14.9443L38.5651 13.7491L41.2072 8.91833C41.5121 8.42032 41.7153 7.9223 41.8678 7.57369C42.0202 7.17528 42.1726 6.82666 42.2234 6.52785C42.2743 6.22904 42.2743 5.88043 42.1726 5.58162C42.071 5.23301 41.9186 4.9342 41.6645 4.73499C41.4105 4.53579 41.1056 4.38638 40.8008 4.33658C40.4451 4.28678 40.0894 4.28678 39.7337 4.38638C39.3273 4.48599 39.0224 4.68519 38.7683 4.8844C38.5143 5.13341 38.3619 5.43222 38.2602 5.73103C38.1586 6.02984 38.2094 6.42825 38.311 6.82666L36.7359 7.27488C36.5327 6.62746 36.5327 5.98004 36.7359 5.43222C36.8884 4.8346 37.244 4.33658 37.7013 3.93817C38.1586 3.53975 38.7175 3.24094 39.4289 3.04174C40.1402 2.84253 40.7499 2.84253 41.3597 2.94213C41.9694 3.04174 42.4775 3.34055 42.9348 3.68916C43.3413 4.08757 43.6461 4.53579 43.8494 5.13341C43.951 5.53182 44.0018 5.93023 43.951 6.37845C43.9002 6.82666 43.7478 7.32468 43.4937 7.8725C43.2397 8.42032 42.884 9.16734 42.4267 10.014L40.8516 12.8527V12.9523L45.831 11.6076L46.2375 13.0021L38.9208 14.9443Z" fill="#F58A07"/>
<path d="M52.7416 12.5536C51.8778 12.6034 51.1157 12.4042 50.4551 11.956C49.7946 11.5078 49.2865 10.9102 48.9308 10.0636C48.5752 9.21693 48.3719 8.1711 48.2703 6.97586C48.2195 5.78062 48.3211 4.73478 48.626 3.83835C48.9308 2.94192 49.3881 2.2945 49.9978 1.79648C50.6076 1.29847 51.3697 1.04946 52.2335 0.999658C53.0973 0.949856 53.8594 1.14906 54.52 1.59728C55.1805 2.04549 55.6886 2.64311 56.0443 3.48974C56.3999 4.33637 56.654 5.38221 56.7048 6.57745C56.7556 7.82249 56.654 8.86832 56.3491 9.71495C56.0443 10.5616 55.587 11.2588 55.0281 11.7568C54.3675 12.2548 53.6562 12.5038 52.7416 12.5536ZM52.6908 11.1094C53.4529 11.0596 54.0627 10.6612 54.4691 9.91416C54.8756 9.16713 55.0281 8.0715 54.9773 6.67705C54.9264 5.73082 54.774 4.98379 54.5708 4.33637C54.3675 3.68895 54.0119 3.24073 53.6562 2.89212C53.2497 2.59331 52.8432 2.44391 52.3351 2.44391C51.573 2.49371 50.9632 2.89212 50.5568 3.63915C50.1503 4.38617 49.9978 5.48181 50.0487 6.87626C50.0995 7.82249 50.2519 8.61931 50.4551 9.21693C50.6584 9.81455 51.014 10.3126 51.3697 10.6612C51.7254 11.0098 52.1827 11.1094 52.6908 11.1094Z" fill="#F58A07"/>
<path d="M70.9318 8.37034L70.5761 9.76479L65.6475 8.46995L66.0031 7.0755L70.9318 8.37034Z" fill="#F58A07"/>
<path d="M76.4189 17.3841L77.0795 16.3383L82.5162 15.0435C83.0751 14.8941 83.5832 14.7447 83.9897 14.645C84.3962 14.5454 84.7519 14.3462 85.0059 14.1968C85.26 14.0474 85.514 13.7984 85.6664 13.4996C85.8697 13.2008 85.9713 12.8522 85.9713 12.5534C85.9713 12.2048 85.8697 11.906 85.7173 11.6569C85.514 11.3581 85.26 11.1091 84.9551 10.9099C84.5994 10.7107 84.2438 10.5613 83.8881 10.5613C83.5324 10.5613 83.2275 10.6111 82.9227 10.7605C82.6178 10.9099 82.3638 11.1589 82.1605 11.5075L80.7886 10.6609C81.1443 10.0633 81.6016 9.66488 82.1605 9.41587C82.7194 9.16687 83.2784 9.06726 83.9389 9.11706C84.5486 9.16687 85.1583 9.36607 85.7681 9.76449C86.3778 10.1629 86.8351 10.6111 87.1399 11.1091C87.4448 11.6569 87.5972 12.2048 87.5972 12.7526C87.5972 13.3004 87.4448 13.8482 87.0891 14.3462C86.8859 14.6949 86.581 14.9937 86.2254 15.2427C85.8697 15.4917 85.4124 15.7407 84.8027 15.9399C84.1929 16.1391 83.4308 16.3383 82.4654 16.5873L79.2643 17.3841L79.2135 17.4339L83.5832 20.1232L82.7702 21.3683L76.4189 17.3841Z" fill="#F58A07"/>
<path d="M87.4953 25.801C86.8856 25.2034 86.5299 24.5062 86.3775 23.7591C86.2759 23.0121 86.3775 22.2153 86.784 21.3686C87.1904 20.522 87.8002 19.6754 88.7148 18.8288C89.5785 17.9821 90.4423 17.3347 91.3061 16.9861C92.1699 16.5877 92.9828 16.4881 93.745 16.5877C94.5071 16.6873 95.2185 17.0857 95.8282 17.6833C96.4379 18.2809 96.7936 18.9782 96.946 19.7252C97.0476 20.4722 96.946 21.269 96.5395 22.1157C96.1331 22.9623 95.5233 23.8089 94.6596 24.6556C93.7958 25.5022 92.8812 26.1496 92.0682 26.4982C91.2045 26.8966 90.3915 26.9962 89.6293 26.8966C88.8164 26.797 88.105 26.3986 87.4953 25.801ZM88.5623 24.7552C89.1212 25.303 89.7818 25.4524 90.6455 25.2532C91.5093 25.054 92.4239 24.4065 93.4401 23.4603C94.1006 22.8129 94.6087 22.1655 94.9644 21.5679C95.2693 20.9702 95.4217 20.4224 95.4217 19.9244C95.4217 19.4264 95.2185 19.028 94.8628 18.6296C94.3039 18.0817 93.6434 17.9323 92.7796 18.1315C91.9158 18.3307 91.0012 18.9782 89.985 19.9244C89.3245 20.5718 88.8164 21.2192 88.4607 21.8169C88.1558 22.4145 88.0034 22.9623 88.0034 23.4603C88.0034 24.0081 88.2066 24.4065 88.5623 24.7552Z" fill="#F58A07"/>
<path d="M92.0684 30.5316L93.1354 29.8842L98.5721 31.0296C99.1818 31.1292 99.6899 31.2289 100.096 31.2787C100.503 31.3285 100.909 31.3285 101.214 31.2787C101.519 31.2289 101.824 31.1292 102.129 30.93C102.434 30.7308 102.688 30.4818 102.84 30.183C102.993 29.8842 103.043 29.5854 102.993 29.2368C102.942 28.8882 102.84 28.5894 102.637 28.2408C102.434 27.8921 102.18 27.6431 101.875 27.4937C101.57 27.3443 101.265 27.2447 100.909 27.2945C100.554 27.2945 100.198 27.4439 99.8931 27.6431L99.0294 26.2487C99.6391 25.9001 100.198 25.7009 100.859 25.7009C101.519 25.7009 102.027 25.8503 102.586 26.1491C103.145 26.4479 103.602 26.8961 103.958 27.4937C104.364 28.0913 104.568 28.689 104.618 29.2866C104.669 29.8842 104.568 30.432 104.314 30.9798C104.06 31.5277 103.653 31.9261 103.145 32.2249C102.789 32.4241 102.383 32.5735 101.976 32.6731C101.57 32.7727 101.011 32.7727 100.401 32.6731C99.7915 32.6233 98.9785 32.4739 98.0132 32.2747L94.7613 31.6273L94.7105 31.6771L97.4542 35.96L96.184 36.707L92.0684 30.5316Z" fill="#F58A07"/>
<path d="M109.445 39.1972L98.7245 43.1813L98.1147 41.5876L107.21 38.2011V38.1513L104.568 36.2589L106.092 35.6613L108.836 37.6533L109.445 39.1972Z" fill="#F58A07"/>
<path d="M116 52.2455L97.2511 54.138L97.0986 52.6937L115.848 50.8013L116 52.2455Z" fill="#F58A07"/>
<path d="M112.037 65.2936L100.655 63.949L100.859 62.3055L112.24 63.6502L112.037 65.2936Z" fill="#F58A07"/>
<path d="M99.1309 70.1242C99.3342 69.3771 99.7407 68.7297 100.249 68.2815C100.757 67.8333 101.417 67.5345 102.129 67.3851C102.84 67.2357 103.653 67.2855 104.517 67.5345C105.381 67.7835 106.092 68.1321 106.651 68.6301C107.21 69.1281 107.565 69.7257 107.769 70.3732C107.972 71.0206 107.921 71.7676 107.718 72.5146C107.515 73.2617 107.108 73.9091 106.6 74.3573C106.092 74.8055 105.431 75.1043 104.72 75.2537C104.009 75.4031 103.196 75.3533 102.332 75.1043C101.468 74.8553 100.757 74.5067 100.249 74.0087C99.6899 73.5107 99.3342 72.9131 99.1309 72.2656C98.9277 71.6182 98.9277 70.8712 99.1309 70.1242ZM100.503 70.5226C100.35 71.0206 100.35 71.4688 100.554 71.8672C100.757 72.2656 101.011 72.6142 101.417 72.8633C101.824 73.1621 102.281 73.3613 102.789 73.5107C103.297 73.6601 103.805 73.7099 104.314 73.7099C104.822 73.6601 105.228 73.5605 105.584 73.3115C105.94 73.0625 106.194 72.7138 106.346 72.2158C106.498 71.7178 106.498 71.2696 106.295 70.8712C106.143 70.4728 105.838 70.1242 105.431 69.8253C105.025 69.5265 104.568 69.3273 104.06 69.1779C103.551 69.0285 103.043 68.9787 102.535 68.9787C102.027 69.0285 101.621 69.1281 101.265 69.4269C100.909 69.6759 100.655 70.0246 100.503 70.5226Z" fill="#F58A07"/>
<path d="M100.96 79.8855L96.4888 77.495L97.3018 76.0507L104.872 80.0349L104.11 81.4293L102.891 80.7819L102.84 80.8815C103.145 81.2799 103.297 81.6783 103.348 82.1763C103.399 82.6744 103.247 83.1724 102.942 83.77C102.688 84.268 102.332 84.6664 101.875 84.9154C101.468 85.1644 100.96 85.3139 100.452 85.3139C99.8931 85.3139 99.3342 85.1146 98.7244 84.8158L93.8975 82.2759L94.7104 80.8317L99.3342 83.272C99.8931 83.5708 100.401 83.6704 100.858 83.521C101.316 83.4214 101.671 83.1226 101.976 82.6246C102.18 82.2759 102.23 81.9771 102.23 81.6285C102.23 81.2799 102.129 80.9811 101.926 80.6823C101.671 80.3835 101.367 80.1345 100.96 79.8855Z" fill="#F58A07"/>
<path d="M90.0865 86.7577C90.5438 86.2597 91.1027 85.9111 91.7125 85.7119C92.3222 85.5625 92.9827 85.5625 93.6941 85.7617C94.4054 85.9609 95.1168 86.3593 95.7773 86.9569C96.4378 87.5546 96.9967 88.202 97.2508 88.8494C97.5557 89.4968 97.6573 90.1442 97.5557 90.7917C97.454 91.4391 97.2 91.9869 96.7427 92.4849C96.387 92.8833 96.0313 93.1323 95.6757 93.2817C95.32 93.4312 95.0151 93.481 94.7103 93.4312C94.4054 93.4312 94.1514 93.3813 93.9481 93.3315L93.8973 93.3814L97.0984 96.1204L95.9805 97.3655L87.3428 89.9948L88.4098 88.7996L89.426 89.6462L89.5276 89.5466C89.4768 89.3474 89.3752 89.0984 89.3244 88.7996C89.2736 88.5008 89.2736 88.202 89.3752 87.8534C89.4768 87.5048 89.7309 87.1561 90.0865 86.7577ZM90.8995 87.953C90.5946 88.3016 90.3914 88.7 90.3914 89.0984C90.3914 89.4968 90.493 89.945 90.6963 90.3435C90.9503 90.7419 91.2552 91.1901 91.7125 91.5387C92.1698 91.9371 92.6271 92.1861 93.0843 92.3355C93.5416 92.4849 93.9481 92.5347 94.3546 92.4351C94.7611 92.3355 95.1168 92.1363 95.4216 91.7877C95.7265 91.4391 95.9297 91.0407 95.9297 90.5925C95.9297 90.194 95.8281 89.7458 95.6249 89.3474C95.3708 88.949 95.066 88.5506 94.6595 88.202C94.2022 87.8534 93.7957 87.5546 93.3384 87.4052C92.8811 87.2558 92.4238 87.206 92.0173 87.2558C91.6108 87.3554 91.2552 87.6044 90.8995 87.953Z" fill="#F58A07"/>
<path d="M82.3131 93.9298C82.9737 93.4816 83.6342 93.1828 84.3455 93.133C85.0569 93.0832 85.7174 93.1828 86.378 93.5314C87.0385 93.88 87.6482 94.378 88.1563 95.0753C88.6644 95.7725 89.0201 96.4697 89.1725 97.2167C89.325 97.9139 89.2233 98.6112 88.9693 99.2586C88.7152 99.906 88.2579 100.454 87.5974 100.952C86.9369 101.4 86.2763 101.699 85.565 101.749C84.8536 101.798 84.1931 101.649 83.5326 101.35C82.872 101.002 82.2623 100.504 81.7542 99.8064C81.2461 99.1092 80.8904 98.412 80.7888 97.6649C80.6872 96.9179 80.738 96.2705 80.9921 95.6231C81.1953 94.9259 81.6526 94.378 82.3131 93.9298ZM83.1261 95.0255C82.7196 95.3243 82.4656 95.6729 82.3131 96.1211C82.1607 96.5693 82.2115 96.9677 82.3639 97.4159C82.5164 97.8642 82.7196 98.3124 83.0753 98.7606C83.3801 99.2088 83.7866 99.5574 84.1931 99.8064C84.5996 100.055 85.0061 100.205 85.4634 100.255C85.9207 100.304 86.3272 100.155 86.7336 99.8064C87.1401 99.5076 87.445 99.159 87.5466 98.7108C87.6482 98.2626 87.6482 97.8641 87.4958 97.3661C87.3434 96.9179 87.1401 96.4697 86.7844 96.0215C86.4796 95.5733 86.0731 95.2247 85.6666 94.9757C85.2601 94.7266 84.8537 94.5772 84.3964 94.5772C83.9899 94.5772 83.5834 94.7266 83.1261 95.0255Z" fill="#F58A07"/>
<path d="M77.6886 102.745L75.6054 98.163L77.1297 97.4658L80.6864 105.135L79.2129 105.783L78.654 104.538L78.5524 104.587C78.5524 105.085 78.4508 105.534 78.1459 105.932C77.8919 106.331 77.4346 106.679 76.8756 106.928C76.3167 107.177 75.8086 107.277 75.3005 107.227C74.7924 107.177 74.3351 106.978 73.9286 106.679C73.5222 106.38 73.1665 105.882 72.8616 105.235L70.626 100.354L72.1503 99.6571L74.3351 104.338C74.5892 104.886 74.9449 105.285 75.4021 105.434C75.8594 105.633 76.3167 105.583 76.8248 105.384C77.1805 105.235 77.4346 105.036 77.6378 104.737C77.841 104.488 77.9427 104.139 77.9935 103.791C77.9935 103.542 77.8919 103.193 77.6886 102.745Z" fill="#F58A07"/>
</svg>
