<svg width="9" height="25" viewBox="0 0 9 25" fill="none" xmlns="http://www.w3.org/2000/svg">
<path d="M5.56722 9.12683C5.56722 10.2928 5.56722 11.7135 3.96114 12.2927C5.60582 12.8563 5.56722 14.0532 5.56722 15.3041V19.937C5.56722 20.8172 5.92241 21.35 6.55557 21.4813C6.6947 21.5282 6.84127 21.5491 6.98797 21.543H8.53228V24.6316H5.98418C3.2662 24.6316 1.76823 23.0873 1.76823 20.2227V14.7404C1.74895 14.4589 1.62485 14.1949 1.42043 14.0005C1.216 13.8061 0.946116 13.6954 0.664051 13.6903H0V10.98H0.664051C0.951744 10.9762 1.22693 10.8618 1.43252 10.6605C1.63812 10.4592 1.75833 10.1865 1.76823 9.89899V4.33949C1.76823 1.52114 3.23532 0 5.98418 0H8.55544V3.04228H7.01114C6.86426 3.0427 6.71835 3.06615 6.57873 3.11177C5.94557 3.27392 5.59038 3.79899 5.59038 4.65608L5.56722 9.12683Z" fill="#063255"/>
</svg>
